<svg xmlns="http://www.w3.org/2000/svg" xmlns:xlink="http://www.w3.org/1999/xlink" viewBox="0 0 445.87 335.46"><defs><style>.cls-1,.cls-16,.cls-30{fill:none;}.cls-2{isolation:isolate;}.cls-3{clip-path:url(#clip-path);}.cls-4{fill:#b2b2b2;}.cls-31,.cls-4{opacity:0.29;}.cls-27,.cls-28,.cls-5{fill:#fff;}.cls-5{opacity:0.49;}.cls-6{fill:#999;}.cls-25,.cls-33,.cls-7{fill:#bdbdbd;}.cls-15,.cls-8{fill:#858585;}.cls-19,.cls-9{fill:#828282;}.cls-10{fill:#9d9d9d;}.cls-11{fill:#a6a6a6;}.cls-12{fill:#929292;}.cls-13{fill:#b4b4b4;}.cls-14{fill:#adadad;}.cls-15,.cls-16{stroke:#6f6f6f;stroke-width:0.5px;}.cls-15,.cls-16,.cls-30{stroke-miterlimit:10;}.cls-17{fill:#a3a3a3;}.cls-18,.cls-31{fill:#c5c5c5;}.cls-19{opacity:0.5;}.cls-20{fill:#c6c6c6;}.cls-21,.cls-26{opacity:0.17;}.cls-21,.cls-25,.cls-31,.cls-32,.cls-33{mix-blend-mode:multiply;}.cls-22{fill:#8e8e8e;}.cls-23,.cls-32{fill:#aeaeae;}.cls-24{fill:#979797;}.cls-25{opacity:0.19;}.cls-28{opacity:0.16;}.cls-29{fill:#bbb;}.cls-30{stroke:#c5c5c5;opacity:0.63;mix-blend-mode:screen;}.cls-32{opacity:0.28;}.cls-33{opacity:0.43;}</style><clipPath id="clip-path"><circle class="cls-1" cx="196.45" cy="159.44" r="158.68"/></clipPath></defs><title>Empty</title><g class="cls-2"><g id="Layer_2" data-name="Layer 2"><g id="Layer_1-2" data-name="Layer 1"><g class="cls-3"><circle class="cls-4" cx="196.45" cy="159.44" r="158.68"/><path class="cls-5" d="M75,61.78A42,42,0,0,1,99.71,47.56c8-1.28,15.66,2,23.36.3,8.11-1.75,12.89-8.81,21.49-9.86,16.79-2,23.75,17.93,40.27,14.7,4.55-.89,8.68-2.85,13.16-4,18.85-4.65,32.76,6.21,49,11,11.4,3.38,21,2,32.32,2Z"/><path class="cls-6" d="M142.41,150.87a46.43,46.43,0,0,0,2.64,29.72c6.89,15.95,9.48,51.29,7.76,59.69s22,3.67,22,3.67,3.51-65.85.18-69.56c-2-2.24,15,91.27,15,91.27l21.44-7.87-6.17-72.46s-12.32-15.3-12.27-15.62-11.26-13.58-11.26-13.58l-14.87-4.2Z"/><path class="cls-7" d="M219.91,104.15s-2.37,20.84-6.24,30.33-9.82,33.83-9.82,33.83l-10.91-9.91,5-9.88,3.62-21.94,4.95-16.37,4.14-2.67Z"/><path class="cls-8" d="M144.17,91.59s-2.57,18.1-4.72,28.45-3.67,25.21-2.16,26.5,1.05,3.67,6.88,4.74,22.63,4,22.63,4l15.53-20.61s-12.5-28.23-13.36-28.23S144.17,91.59,144.17,91.59Z"/><path class="cls-6" d="M166.42,115.06c4.52-5.33-1.84.91,1-9.24l-2.56,26.71s5.15,5.54,15.78,14.73,12.71,12.18,12.71,12.18a123,123,0,0,0,5.3-11.89s3.71-34.69,11-41.16c0-2.58-.25-5.53-.25-5.53l-5.61,12.56,21.77-1.07s-5.82-24.85-4.31-30-1.29-8-1.29-8l-21.35,2.16-16.79-16-3-18.54s-24.68,8.91-30.42,23.6S144.19,97,144.76,105s1,5,1,11.36Z"/><line class="cls-9" x1="192.23" y1="80.15" x2="187.01" y2="61.12"/><path class="cls-8" d="M177.39,42.62c-.15.06-6.9,15.29,2.84,21.84s16.7,15.19,17.53,14.26-3.36-10.18-3.36-10.18l-9.49-4.8-6-6.73Z"/><path class="cls-7" d="M197.87,75.74c-.17-.52-6.06-8.35-6.06-8.35l-10.63-6-1.51-.65"/><path class="cls-7" d="M180,61.41s1.34,8.6,7.88,12.51,8.9,3.34,8.9,3.34l-2-4.88-8.34-6.9Z"/><path class="cls-8" d="M205.82,113.25c1.63-6.34,1.58-23.45,1.58-23.45l1.76,23.36Z"/><path class="cls-10" d="M57.74,327.29s-29.11-41.87-23.89-57,28,10.3,28,10.3,10-49.52,19.65-53.86,35.75,32.61,35.75,32.61,38.47-45.15,53.48-42.17,18,36.27,18,36.27S218.4,236,224.42,241.85s0,30.3,0,30.3,19.41-5.65,26.86,3.19-26.86,47.25-26.86,47.25Z"/><path class="cls-11" d="M213.44,300.24c-17.38,4.83-34.76,4.83-52.14-3.86-25.11-11.59-44.42,17.38-67.6,28-10.62,4.83-24.14-4.83-36.69-1.93a16.6,16.6,0,0,0-11.09,8c3.68,3.1,6.51,5,6.51,5H200.14s39.82-5.35,37.52-14.1-30.6-1.4-30.6-1.4,14.82-12,17.93-20.69A21.36,21.36,0,0,0,213.44,300.24Z"/><path class="cls-12" d="M115.44,234.47c0,5.08-1.23,9.19-2.76,9.19s-2.77-4.11-2.77-9.19,1.24-9.18,2.77-9.18S115.44,229.4,115.44,234.47Z"/><path class="cls-12" d="M121.93,236.7c-1.55,3.84-3.74,6.57-4.89,6.1s-.84-4,.71-7.78,3.73-6.57,4.89-6.11S123.47,232.86,121.93,236.7Z"/><path class="cls-12" d="M30,299.35c3.75,3.42,6,7.1,4.93,8.23s-4.91-.73-8.65-4.15-6-7.1-4.93-8.23S26.23,295.93,30,299.35Z"/><path class="cls-12" d="M36,296.06c1.79,3.72,2.33,7.18,1.21,7.72s-3.48-2-5.28-5.77-2.33-7.19-1.21-7.73S34.2,292.33,36,296.06Z"/><path class="cls-12" d="M196.37,251c.32,4.12-.42,7.54-1.66,7.64s-2.51-3.17-2.83-7.3.43-7.54,1.67-7.64S196.05,246.83,196.37,251Z"/><path class="cls-12" d="M203.69,255.33c-2.56,3-5.36,4.76-6.25,4s.45-3.8,3-6.78,5.36-4.77,6.25-4S206.25,252.35,203.69,255.33Z"/><path class="cls-12" d="M85,295c3.18,2.65,5.1,5.58,4.3,6.53s-4-.42-7.19-3.07-5.1-5.58-4.3-6.53S81.81,292.33,85,295Z"/><path class="cls-12" d="M93.22,292.8c.34,3.91-.33,7.16-1.51,7.27s-2.41-3-2.75-6.9.34-7.16,1.51-7.26S92.88,288.89,93.22,292.8Z"/><path class="cls-12" d="M157.77,268.32c3.17,2.65,5.1,5.57,4.3,6.53s-4-.42-7.19-3.08-5.1-5.57-4.31-6.53S154.59,265.66,157.77,268.32Z"/><path class="cls-12" d="M166,266.14c.34,3.91-.34,7.16-1.52,7.26s-2.4-3-2.75-6.89.34-7.16,1.52-7.27S165.67,262.23,166,266.14Z"/><path class="cls-9" d="M248.19,269.68c-1.26,3.1-3,5.3-4,4.92s-.66-3.2.6-6.3,3.05-5.3,4-4.92S249.45,266.58,248.19,269.68Z"/><path class="cls-9" d="M70.39,245.24c2.71,2,4.42,4.22,3.83,5s-3.27-.12-6-2.09-4.42-4.23-3.83-5S67.69,243.27,70.39,245.24Z"/><path class="cls-9" d="M74.05,242.18c1.14,2.47,1.46,4.75.72,5.09s-2.27-1.39-3.41-3.85-1.45-4.75-.71-5.1S72.92,239.71,74.05,242.18Z"/><path class="cls-9" d="M251.7,274.8c-2.48,1.06-4.75,1.31-5.07.56s1.43-2.21,3.91-3.27,4.75-1.31,5.07-.56S254.18,273.74,251.7,274.8Z"/><path class="cls-12" d="M208.72,288c-1,3.19-2.56,5.53-3.52,5.23s-.94-3.11,0-6.3,2.56-5.53,3.52-5.23S209.7,284.81,208.72,288Z"/><path class="cls-12" d="M212.72,290.25c-1.72,1.88-3.57,3-4.14,2.47s.37-2.47,2.09-4.35,3.58-3,4.14-2.47S214.44,288.36,212.72,290.25Z"/><path class="cls-12" d="M50.59,260c1.38,3,3.24,5.16,4.15,4.74s.53-3.21-.85-6.24-3.24-5.16-4.15-4.74S49.2,257,50.59,260Z"/><path class="cls-12" d="M46.9,262.78c1.94,1.65,3.92,2.51,4.42,1.92s-.68-2.39-2.63-4-3.92-2.5-4.42-1.92S45,261.14,46.9,262.78Z"/><path class="cls-13" d="M79.17,58.85S50,44.91,50.63,29.22,74.3,44,74.3,44,69.57.68,81.74,0s7.44,41.33,7.44,41.33,21-18.4,25-14.31-7,24.38-31.32,31.82Z"/><path class="cls-14" d="M80.06,46.24c-1.42.71-1.42,2.83-2.83,3.54-6.14.68-13.58-5.86-16.65-3.18A91.42,91.42,0,0,0,79.17,58.85h3.72C102.07,53,113,39.16,114.76,31.55c-7.33,2.61-14.07,8.25-20.55,12.57C90,47,85,45.53,80.06,46.24Z"/><path class="cls-13" d="M80.3,92.4s-26-50.57-39.64-46.47C31.45,48.71,40.91,73.62,52,81.3c0,0-29.14-10.53-30-3.72C20.34,90.24,63.87,112.4,80.3,92.4Z"/><path class="cls-13" d="M84.24,100.65s26-50.57,39.64-46.47c9.22,2.77-.25,27.68-11.31,35.36,0,0,29.14-10.52,30-3.71C144.2,98.48,100.67,120.65,84.24,100.65Z"/><path class="cls-13" d="M78.19,170.75s-29.3-55.31-48.83-55.24c-10.28,0,1.95,30.47,1.95,30.47s-24.1-7.87-29.19-1c-10.36,13.93,20.1,26,31.09,25.79,0,0-13.33,27.18,21.54,8.37C63.13,174.61,78.19,170.75,78.19,170.75Z"/><path class="cls-13" d="M84.24,172.58s29.3-55.31,48.83-55.24c10.28,0-1.95,30.47-1.95,30.47s24.1-7.86,29.19-1c10.36,13.93-20.1,26-31.09,25.79,0,0,13.33,27.18-21.54,8.37C99.3,176.44,84.24,172.58,84.24,172.58Z"/><path class="cls-13" d="M80.3,197.77S12.59,213,5.41,223.72s38,14.35,50.23,0c0,0-12.2,33.72.71,33S80.3,197.77,80.3,197.77Z"/><path class="cls-13" d="M85.5,210.77s67.72,15.19,74.9,25.95-38,14.35-50.23,0c0,0,12.2,33.72-.72,33S85.5,210.77,85.5,210.77Z"/><path class="cls-14" d="M69.43,73.53c-4.05-1.38-8.16-2.25-12-1.82-5.66.71-2.13,7.78.7,11.32.71,2.12-1.41,2.83-2.12,3.54-7.78,0-17-2.83-21.22,4.24a13.58,13.58,0,0,0-.8,1.47c13.75,8.36,35.7,13,46.32.12C80.3,92.4,75.74,83.54,69.43,73.53Z"/><path class="cls-14" d="M102.7,97.18c-6.37-1.42,2.12-12.74-1.42-13.44a10.7,10.7,0,0,0-8.82,2.34c-4.9,8.11-8.22,14.57-8.22,14.57,13.33,16.22,44.49,4.7,54.92-7l-1.09-.73C125.34,85.15,114.73,99.3,102.7,97.18Z"/><path class="cls-14" d="M62.61,145.27a29.42,29.42,0,0,0-13.68,0c-5,1.42-1.42,9.91-3.54,11.32-10.6,6.62-27.4-3.49-35.3,6.8,7.64,4.58,17.73,7.44,23.12,7.34,0,0-13.33,27.18,21.54,8.37,8.38-4.51,23.44-8.37,23.44-8.37A289.45,289.45,0,0,0,62.61,145.27Z"/><path class="cls-14" d="M124.63,158c-7.78,3.53-7.78-9.2-12-9.91a20.66,20.66,0,0,0-14.55,1.58C90,161.76,84.24,172.58,84.24,172.58s15.06,3.86,23.44,8.37c34.87,18.81,21.54-8.37,21.54-8.37,6.37.12,19.28-3.89,27-10C149.94,153.24,135.54,154.18,124.63,158Z"/><path class="cls-14" d="M80.3,197.77S61.44,202,42.57,207.58a5.75,5.75,0,0,0,.7,3.51c4.24,7.07,16.27-6.37,24,0,3.54,2.12,3.54,8.49,1.42,12-5.6,9.6-11.88,22.36-12.06,33.57C69.45,255,80.3,197.77,80.3,197.77Z"/><path class="cls-14" d="M106.24,234.44c-.71-2.83,2.83-5.66,6.36-6.37,6.37-1.41,12,3.54,18.4,2.12a17.56,17.56,0,0,0,7.67-4.67c-22.26-7.82-53.17-14.75-53.17-14.75s11,58.24,24,59a5.61,5.61,0,0,0,2.44-.37C112.44,257.74,109.68,246.26,106.24,234.44Z"/><path class="cls-13" d="M78.19,115.5s-5.88-8.6-7.81-6,4.92,6,4.92,6-11.95-2.46-11.07,0S78.16,117.61,78.19,115.5Z"/><polygon class="cls-8" points="116.78 155.55 115.59 154.57 86.65 170.26 84.4 103.67 100.69 90.47 100.3 90.04 84.23 98.67 82.89 58.85 79.17 58.85 78.62 90.87 65.85 86.28 65.34 86.84 78.56 94.22 75.3 283.57 90.48 283.57 86.94 178.79 116.78 155.55"/><path class="cls-13" d="M82.89,69.72s4.29-8.46,6-8.22S88.33,68.44,82.89,69.72Z"/><path class="cls-13" d="M78.8,80.27S72.29,72.77,73,69.72,77.35,75,77.35,75,76,63.71,77,63.71,80.43,74.85,78.8,80.27Z"/><path class="cls-13" d="M85,131A2.27,2.27,0,0,1,85,129.8c1.06-2.91,5.76-15.2,9.27-14.25,4,1.09-4.4,12.65-4.4,12.65s16.24-8.89,18.12-5.33c.81,1.53-22.62,10.36-22.62,10.36Z"/><path class="cls-13" d="M77.71,143.74s.33-19.51-3.17-20.13c-2.59-.46-1.37,9.22-1.37,9.22s-6.48-14-10.79-11.83c-4,2,5.94,13.25,5.94,13.25s-11.82-5.73-11.62-3C57.11,136.47,77.71,143.74,77.71,143.74Z"/><path class="cls-13" d="M76.94,188.43s-4.72-10-7-9,1.2,7,1.2,7-21-2.76-22.25,1.2,15.24,4.25,15.24,4.25S24.67,199,30.37,202.47,76.79,196.69,76.94,188.43Z"/><path class="cls-13" d="M87.13,184.39s27.64-1.61,29.81,4.06-14.9,2.26-14.9,2.26,40.58,14.39,35.54,20.06S95.29,203,87.13,184.39Z"/><polyline class="cls-15" points="77.72 283.57 80.3 98.63 79.96 58.85"/><polyline class="cls-16" points="80.3 283.57 86.14 173.09 81.93 58.85"/><polyline class="cls-16" points="78.43 232.78 83.22 168.78 80.3 92.4"/><path class="cls-17" d="M110.39,29.42s-3.72-4.05-2.63-6.56,2.83,4.53,2.83,4.53,1.11-8.25,3.41-8.25S112,28.89,110.39,29.42Z"/><path class="cls-17" d="M56.91,25.25s2.81-4.49,4-4.19c1.57.39-2,4.73-4.57,6.73,0,0-2.89-5.74-2.44-7.68S56.91,25.25,56.91,25.25Z"/><path class="cls-17" d="M87.83,22S91.3,9.83,93.46,10.27s-2.4,8.87-2.4,8.87,5.61-1.73,5.41,0S87.83,22,87.83,22Z"/><path class="cls-17" d="M138.87,87.9s3.47-12.12,5.63-11.68-2.4,8.87-2.4,8.87,5.61-1.73,5.41,0S138.87,87.9,138.87,87.9Z"/><path class="cls-17" d="M130.68,121.71s-4.54-7.14-3.46-9.52,3.46,4.76,3.46,4.76,4.55-5.52,5.84-5.25S130.68,121.71,130.68,121.71Z"/><path class="cls-17" d="M29.81,78.65s-10-7-7.89-8.93,6.4,4.46,6.4,4.46,3.44-4.79,4.52-3.54S29.81,78.65,29.81,78.65Z"/><path class="cls-17" d="M36.14,117.36s.7-9.17,3-8.33,0,12.68,0,12.68-12.62-7.89-11.77-10S36.14,117.36,36.14,117.36Z"/><path class="cls-17" d="M115.22,153.9s-10.37-10.64-8.59-13.2,7.54,7.73,7.54,7.73,6.8-9,8.51-6.33S115.22,153.9,115.22,153.9Z"/><path class="cls-17" d="M127.05,204.59s.64-7.79,2.74-8.09,0,5.93,0,5.93,6-4.44,6.89-1.89S127.05,204.59,127.05,204.59Z"/><path class="cls-17" d="M106.52,220.46s-4.08-6.66-2.56-8.14,3.5,4.79,3.5,4.79,2.22-7.13,4.45-5.6S106.52,220.46,106.52,220.46Z"/><path class="cls-17" d="M67.52,227.23s7.36,2.64,7.1,4.75-5.73-1.55-5.73-1.55,2.73,6.95,0,7.15S67.52,227.23,67.52,227.23Z"/><path class="cls-17" d="M24.59,216s-6.32-.64-6.77-3.92,3.39,0,3.39,0,1.89-7.77,3.38-7.47S24.59,216,24.59,216Z"/><path class="cls-17" d="M78.05,165.11s-.52-13.11-3.51-13-.42,7.93-.42,7.93-5.41-2.92-6.12-1.89C66.23,160.71,78.05,165.11,78.05,165.11Z"/><path class="cls-17" d="M143.19,233.06s12.49-4,11.57-6.9-7.76,1.75-7.76,1.75,1.35-6,.16-6.41C144.23,220.49,143.19,233.06,143.19,233.06Z"/><path class="cls-17" d="M151.47,148.38s-4.28-14.22-1.52-15.67,3.11,10.34,3.11,10.34,10.19-4.84,10.48-1.68S151.47,148.38,151.47,148.38Z"/><path class="cls-14" d="M52.43,335.46S32.2,321.86,29.6,308.24s26.56-1.67,26.56-1.67S43.45,271,48.65,264.19s30.29,8.28,30.29,8.28,26.12-45.94,39-39.6,31.93,45.22,31.93,45.22,40.72-29.66,48.51-20.85-9.52,37.18-9.52,37.18,32.77-8,36.29,0S207.06,320,207.06,320s28.3-7.36,30.6,1.4-37.52,14.1-37.52,14.1Z"/><path class="cls-10" d="M221.51,307.59s-29.1-41.86-23.89-57,28,10.3,28,10.3,10-49.52,19.66-53.86,45.59,32.87,45.59,32.87,28.62-45.41,43.64-42.43,18,36.26,18,36.26,29.67-17.38,35.69-11.56,0,30.3,0,30.3,19.42-5.65,26.86,3.18-26.86,47.26-26.86,47.26Z"/><path class="cls-11" d="M377.22,280.55c-17.39,4.83-34.77,4.83-52.15-3.87-25.11-11.58-44.42,17.39-67.59,28-10.62,4.83-24.14-4.83-36.7-1.93a16.59,16.59,0,0,0-11.09,8c3.68,3.1,6.51,5,6.51,5H363.91s39.82-5.35,37.52-14.1-30.59-1.4-30.59-1.4,14.81-12,17.92-20.69A21.32,21.32,0,0,0,377.22,280.55Z"/><path class="cls-12" d="M279.22,214.78c0,5.08-1.24,9.19-2.77,9.19s-2.76-4.11-2.76-9.19,1.23-9.18,2.76-9.18S279.22,209.71,279.22,214.78Z"/><path class="cls-12" d="M285.7,217c-1.54,3.84-3.73,6.57-4.89,6.1s-.84-4,.71-7.79,3.74-6.56,4.89-6.1S287.25,213.17,285.7,217Z"/><path class="cls-12" d="M193.76,279.66c3.74,3.42,6,7.1,4.92,8.23s-4.9-.73-8.65-4.15-6-7.1-4.93-8.23S190,276.24,193.76,279.66Z"/><path class="cls-12" d="M199.77,276.37c1.79,3.72,2.34,7.18,1.21,7.72s-3.48-2-5.27-5.77-2.34-7.19-1.22-7.73S198,272.64,199.77,276.37Z"/><path class="cls-12" d="M360.15,231.26c.32,4.13-.43,7.55-1.67,7.65s-2.51-3.17-2.83-7.3.43-7.54,1.67-7.64S359.83,227.14,360.15,231.26Z"/><path class="cls-12" d="M367.46,235.64c-2.55,3-5.35,4.76-6.25,4s.45-3.81,3-6.78,5.36-4.77,6.26-4S370,232.66,367.46,235.64Z"/><path class="cls-12" d="M248.76,275.29c3.17,2.65,5.1,5.58,4.3,6.53s-4-.42-7.2-3.07-5.09-5.58-4.3-6.53S245.58,272.64,248.76,275.29Z"/><path class="cls-12" d="M257,273.11c.34,3.91-.34,7.16-1.52,7.27s-2.4-3-2.75-6.9.34-7.16,1.52-7.26S256.66,269.2,257,273.11Z"/><path class="cls-12" d="M321.54,248.62c3.17,2.66,5.1,5.58,4.3,6.54s-4-.42-7.19-3.08-5.1-5.57-4.3-6.53S318.37,246,321.54,248.62Z"/><path class="cls-12" d="M329.78,246.45c.34,3.91-.34,7.16-1.51,7.26s-2.41-3-2.75-6.89.33-7.17,1.51-7.27S329.44,242.54,329.78,246.45Z"/><path class="cls-9" d="M362.77,197c.37,4.65-.48,8.5-1.87,8.61s-2.83-3.57-3.19-8.22.48-8.5,1.88-8.61S362.41,192.32,362.77,197Z"/><path class="cls-9" d="M371,201.9c-2.88,3.35-6,5.37-7,4.5s.51-4.29,3.39-7.64,6.05-5.38,7.06-4.51S373.91,198.54,371,201.9Z"/><path class="cls-9" d="M412,250c-1.26,3.09-3,5.3-4,4.92s-.67-3.2.6-6.3,3-5.3,4-4.92S413.23,246.89,412,250Z"/><path class="cls-9" d="M234.17,225.55c2.7,2,4.42,4.22,3.82,5s-3.26-.12-6-2.09-4.42-4.23-3.82-5S231.46,223.58,234.17,225.55Z"/><path class="cls-9" d="M237.83,222.49c1.13,2.46,1.45,4.74.71,5.09s-2.27-1.39-3.4-3.86-1.46-4.74-.72-5.09S236.69,220,237.83,222.49Z"/><path class="cls-9" d="M415.47,255.11c-2.48,1.05-4.75,1.31-5.07.56s1.44-2.21,3.92-3.27,4.75-1.31,5.07-.56S418,254.05,415.47,255.11Z"/><path class="cls-12" d="M372.49,268.31c-1,3.19-2.56,5.53-3.52,5.23s-.94-3.12,0-6.3,2.55-5.53,3.51-5.23S373.47,265.12,372.49,268.31Z"/><path class="cls-12" d="M376.5,270.56c-1.72,1.88-3.58,3-4.14,2.46s.37-2.46,2.09-4.34,3.57-3,4.13-2.47S378.22,268.67,376.5,270.56Z"/><path class="cls-12" d="M214.36,240.35c1.38,3,3.24,5.16,4.15,4.74s.54-3.21-.85-6.24-3.24-5.16-4.15-4.74S213,237.32,214.36,240.35Z"/><path class="cls-12" d="M210.67,243.09c2,1.65,3.93,2.51,4.42,1.92s-.68-2.39-2.63-4-3.92-2.5-4.42-1.92S208.72,241.45,210.67,243.09Z"/><path class="cls-14" d="M216.2,315.77s-20.23-13.6-22.83-27.22,26.56-1.67,26.56-1.67-12.71-35.59-7.51-42.38,30.3,8.28,30.3,8.28,26.11-45.94,39-39.6,31.92,45.22,31.92,45.22,40.72-29.66,48.51-20.85-9.52,37.18-9.52,37.18,32.77-8,36.3,0-18.12,25.54-18.12,25.54,28.29-7.36,30.59,1.4-37.52,14.1-37.52,14.1Z"/><path class="cls-18" d="M220.26,191.84l6.46,4.48.86,7.22L294,252.46s7.65,4.2,12.93-1.83,3.77-8.84,3.77-8.84l-72.5-52.4-7.91,1.3-8.7-2.88Z"/><path class="cls-19" d="M114,247.84c.36,4.65-.48,8.51-1.88,8.61s-2.82-3.57-3.18-8.21.48-8.51,1.88-8.62S113.6,243.19,114,247.84Z"/><path class="cls-19" d="M122.21,252.77c-2.88,3.36-6,5.37-7,4.5s.51-4.29,3.39-7.64,6-5.38,7-4.51S125.09,249.41,122.21,252.77Z"/><path class="cls-20" d="M178.22,48.06s-2.36,14.23,7.34,18.75S194.69,78,198.64,79.09s23.77-.43,24.63-7.75S217.77,50,217.77,50s-8.72,10.32-9.8,10.32S178.22,48.06,178.22,48.06Z"/><path class="cls-6" d="M190.61,29.07c-6.43,3.1-11.59,9-12.24,15.82a17.85,17.85,0,0,0,7.7,16.18c2.52,1.68,5.49,2.72,7.68,4.8s3.59,5.37,6.23,7.1c3.77,2.47,8.76,1.14,13-.28,1.8-.59,3.71-1.26,4.86-2.76,1.43-1.87,1.28-4.47,1.07-6.81l-1.39-15c-.57-6.21-1.31-13.69-6.52-17.89C205.28,25.61,197.27,25.86,190.61,29.07Z"/><g class="cls-21"><path class="cls-22" d="M197.92,65.45c-8.8-.41-14.68-2.76-18.66-5.74a12.23,12.23,0,0,0,6.3,7.1c9.7,4.53,9.13,11.21,13.08,12.28s23.77-.43,24.63-7.75c.37-3.15-.64-10.64-5.5-21.31C217.94,62.39,208.29,65.94,197.92,65.45Z"/></g><path class="cls-7" d="M163.77,131.49l56.41,51.83s4.6,7.18-3.16,11.06-15.22-4.16-16.36-8.47a14.06,14.06,0,0,0-5-7c-2.88-3-39.65-31.9-43.82-36.06s-4.56-8-4.56-8l.27-18.55,17.38-1v17.25"/><polygon class="cls-23" points="160.17 158.63 169.61 157.57 166.8 155.3 162.2 154.49 160.17 158.63"/><polygon class="cls-23" points="226.72 196.32 230.24 190.69 221.04 185.19 220.25 191.84 226.72 196.32"/><path class="cls-24" d="M228,315c-6.52-.52,6.79-13.24,2.78-18.36-1.51-1.93-2.91-4.18-2.77-6.63.16-2.74,2.25-5,4.62-6.4s5.05-2.09,7.55-3.22c11.49-5.22,12.32-15.13,15.21-25.78,1.52-5.59,6-11.46,12.38-11.29,3.11.09,5.93,1.75,8.91,2.65,6.86,2.07,14,.1,20.19-3.12,7.08-3.71,11.21-11.17,19.8-11.87a17.71,17.71,0,0,1,12.12,3.55c2.28,1.75,4,4.13,3.61,7.11-.22,1.7-2.36,4.16-3.25,5.59a127.37,127.37,0,0,1-14.05,18.24A162.82,162.82,0,0,1,275,297c-7.41,4.18-15.46,8.69-23.61,11.23C250.11,308.63,229.28,315.07,228,315Z"/><path class="cls-22" d="M93,279.74s12.79-30.85,21.29-16.35,26.5-8.75,32.5,3.75-.25,14.5,9,16S177.08,296,164.72,315C164.72,315,124.52,307.23,93,279.74Z"/><path class="cls-25" d="M207.52,113.23l-7.06,35.83-5.29,11.75-1.78-1.37,5.4-12.89s2.32-24.11,7-33.3Z"/><path class="cls-13" d="M177,111.92l4.9-6.21-1.59-.42a42.1,42.1,0,0,1,1.16,6,1,1,0,0,0,1.43.82c1.18-.77,5.73-4.62,6.83-4.23.19.07.84,1.85,1.29,2.15,2.93,1.91,5.39-2.72,7.93-2.56,1.23.08,1.22-1.83,0-1.9-1.77-.12-2.21.78-3.76,1.38l-3.46.59a2.28,2.28,0,0,0-.22-.86c-.24-.11-.47-.69-.75-.85-2.38-1.29-7,3.48-8.82,4.64l1.43.82a45.51,45.51,0,0,0-1.22-6.55,1,1,0,0,0-1.59-.42l-4.9,6.21c-.75,1,.58,2.31,1.34,1.35Z"/><g class="cls-26"><path class="cls-27" d="M173.85,120.35h16.34a1,1,0,0,0,0-1.91H173.85a1,1,0,0,0,0,1.91Z"/></g><polygon class="cls-8" points="178.69 62.06 173.19 64.39 190.19 80.23 178.69 62.06"/><path class="cls-28" d="M167.46,105.82s4.31-35.68-5.94-49.68c0,0,14.68,28.52,8.09,48.64Z"/><path class="cls-8" d="M183,69.21a20.28,20.28,0,0,0,13.28,8.08s-.08.92,1.52,1.43l-4.37,6.39Z"/><polygon class="cls-8" points="166.42 115.06 168.9 85.87 163.93 115.31 166.42 115.06"/><polygon class="cls-29" points="236.14 209.69 246.9 195.72 238.15 189.4 230.24 190.69 226.72 196.32 227.58 203.54 236.14 209.69"/><line class="cls-30" x1="252.92" y1="200.07" x2="242.2" y2="214.24"/><line class="cls-30" x1="246.9" y1="195.52" x2="236.19" y2="209.69"/><polygon class="cls-31" points="227.71 194.74 230.24 201.23 292.25 244.9 286.02 246.53 227.58 203.54 226.72 196.32 227.71 194.74"/><polygon class="cls-32" points="223.07 186.4 223.07 193.79 220.25 191.84 221.04 185.19 223.07 186.4"/><path class="cls-7" d="M214.9,178.46s14.87,6,10.35,7.81c-2.81,1.42-10.35-1.08-10.35-1.08Z"/><polygon class="cls-8" points="176.35 187.01 176.35 172.65 184.52 232.15 176.35 187.01"/><polygon class="cls-25" points="148.4 120.52 164.89 116.77 164.89 115.28 147.51 116.28 147.45 120.52 148.4 120.52"/><polygon class="cls-33" points="218.35 114.31 207.52 113.23 218.73 112.69 218.35 114.31"/><path class="cls-5" d="M241.54,125.85a42,42,0,0,1,24.68-14.22c7.95-1.28,15.66,2,23.36.3,8.11-1.75,12.89-8.81,21.49-9.86,16.79-2,23.75,17.93,40.27,14.7,4.55-.89,8.68-2.85,13.16-4,18.85-4.65,32.76,6.2,49.06,11,11.4,3.38,21,2,32.31,2Z"/></g></g></g></g></svg>